<svg xmlns="http://www.w3.org/2000/svg" width="24" height="24" fill="none" viewBox="0 0 24 24" id="gallery-add"><path fill="#AAA" fill-rule="evenodd" d="M6.36217 11.6019C5.78516 11.0249 4.85959 10.9941 4.24547 11.5315L2.49389 13.0641C2.18216 13.3368 1.70834 13.3053 1.43558 12.9935C1.16282 12.6818 1.19441 12.208 1.50613 11.9352L3.25772 10.4026C4.46614 9.34523 6.28742 9.40587 7.42283 10.5413L11.7126 14.831C12.1421 15.2605 12.8182 15.3191 13.3152 14.9698L13.6134 14.7603C15.0437 13.7551 16.9788 13.8715 18.2782 15.041L21.5017 17.9422C21.8096 18.2193 21.8346 18.6935 21.5575 19.0014C21.2804 19.3093 20.8062 19.3342 20.4983 19.0571L17.2748 16.1559C16.4951 15.4543 15.334 15.3844 14.4759 15.9875L14.1777 16.1971C13.0843 16.9655 11.5968 16.8366 10.6519 15.8917L6.36217 11.6019Z" clip-rule="evenodd"></path><path fill="#111" fill-rule="evenodd" d="M11.9426 1.25L12 1.25C12.4142 1.25 12.75 1.58579 12.75 2C12.75 2.41421 12.4142 2.75 12 2.75C9.62178 2.75 7.91356 2.75159 6.61358 2.92637C5.33517 3.09825 4.56445 3.42514 3.9948 3.9948C3.42514 4.56445 3.09825 5.33517 2.92637 6.61358C2.75159 7.91356 2.75 9.62178 2.75 12C2.75 14.3782 2.75159 16.0864 2.92637 17.3864C3.09825 18.6648 3.42514 19.4355 3.9948 20.0052C4.56445 20.5749 5.33517 20.9018 6.61358 21.0736C7.91356 21.2484 9.62178 21.25 12 21.25C14.3782 21.25 16.0864 21.2484 17.3864 21.0736C18.6648 20.9018 19.4355 20.5749 20.0052 20.0052C20.5749 19.4355 20.9018 18.6648 21.0736 17.3864C21.2484 16.0864 21.25 14.3782 21.25 12C21.25 11.5858 21.5858 11.25 22 11.25C22.4142 11.25 22.75 11.5858 22.75 12V12.0574C22.75 14.3658 22.75 16.1748 22.5603 17.5863C22.366 19.031 21.9607 20.1711 21.0659 21.0659C20.1711 21.9607 19.031 22.366 17.5863 22.5603C16.1748 22.75 14.3658 22.75 12.0574 22.75H11.9426C9.63423 22.75 7.82519 22.75 6.41371 22.5603C4.96897 22.366 3.82895 21.9607 2.93414 21.0659C2.03933 20.1711 1.63399 19.031 1.43975 17.5863C1.24998 16.1748 1.24999 14.3658 1.25 12.0574V11.9426C1.24999 9.63423 1.24998 7.82519 1.43975 6.41371C1.63399 4.96897 2.03933 3.82895 2.93414 2.93414C3.82895 2.03933 4.96897 1.63399 6.41371 1.43975C7.82519 1.24998 9.63423 1.24999 11.9426 1.25Z" clip-rule="evenodd"></path><path fill="#111" fill-rule="evenodd" d="M18.5 1.25C18.9142 1.25 19.25 1.58579 19.25 2V4.75H22C22.4142 4.75 22.75 5.08579 22.75 5.5C22.75 5.91421 22.4142 6.25 22 6.25H19.25V9C19.25 9.41421 18.9142 9.75 18.5 9.75C18.0858 9.75 17.75 9.41421 17.75 9V6.25H15C14.5858 6.25 14.25 5.91421 14.25 5.5C14.25 5.08579 14.5858 4.75 15 4.75H17.75V2C17.75 1.58579 18.0858 1.25 18.5 1.25Z" clip-rule="evenodd"></path></svg>